# xmcd
#
# Track frame offsets:
#	150
#	28412
#	46062
#	72097
#	94450
#	129817
#	152982
#	177362
#	199775
#	230732
#	263852
# Disc length: 4343 seconds
# Revision: 2
# Processed by: cddbd v1.5.1PL2 Copyright (c) Steve Scherf et al.
#
# Submitted via: libkcddb 0.31
#
DISCID=9a10f50b
DTITLE=John Lee Hooker - The Father Of The Blues "Live"
DYEAR=1900
DGENRE=Unknown
TTITLE0=Hey, Hey
TTITLE1=I Want You To Roll Me
TTITLE2=Little Girl
TTITLE3=You Know It Ain't Right
TTITLE4=When My First Wife Left Me
TTITLE5=One Room Country Shack
TTITLE6=Sugar Mama
TTITLE7=Louise
TTITLE8=Tupelo
TTITLE9=Rock Steady
TTITLE10=Boogie On
EXTD=Tomato Records Cat. # 2696022
EXTT0=
EXTT1=
EXTT2=
EXTT3=
EXTT4=
EXTT5=
EXTT6=
EXTT7=
EXTT8=
EXTT9=
EXTT10=
PLAYORDER=
